<svg width="295" height="337" viewBox="0 0 295 337" fill="none" xmlns="http://www.w3.org/2000/svg">
<path d="M228.275 64.9892C236.578 61.0927 249.518 69.0443 255.238 73.5086C261.924 78.6991 267.317 85.3052 271.464 92.1067C290.294 122.984 300.192 159.72 284.718 193.178C279.507 204.505 271.377 214.713 260.915 223.064C255.033 227.735 242.928 232.14 241.162 239.284C240.784 241.058 240.934 242.884 241.599 244.596C243.937 251.143 250.995 255.681 256.388 260.448C282.28 283.381 263.559 318.933 235.875 334.254" stroke="#CCDDE2" stroke-width="4.72" stroke-miterlimit="10"/>
<path d="M25.2276 185.389C33.3121 178.145 43.6428 173.249 54.0303 168.745C65.2787 163.867 76.3479 158.957 86.5737 152.624C92.7992 148.776 98.6891 144.557 104.198 139.998" stroke="#CCDDE2" stroke-width="4.72" stroke-miterlimit="10"/>
<path d="M12.1045 277.14C1.77385 254.627 -0.848147 228.822 9.92827 206.335" stroke="#CCDDE2" stroke-width="4.72" stroke-miterlimit="10"/>
<path d="M147.474 44.4119V20.2804C147.474 18.6183 146.691 17.0243 145.298 15.849C143.905 14.6737 142.015 14.0134 140.045 14.0134H45.3165C43.3461 14.0134 41.4565 14.6737 40.0633 15.849C38.6702 17.0243 37.8875 18.6183 37.8875 20.2804V133.756C37.8958 135.414 38.682 137.001 40.0743 138.171C41.4665 139.341 43.3518 139.998 45.3165 139.998H140.058C140.978 140.004 141.89 139.856 142.741 139.563" stroke="black" stroke-width="4.72" stroke-linecap="round" stroke-linejoin="round"/>
<path d="M137.038 17.8468H48.3406C44.4137 17.8468 41.2306 20.5322 41.2306 23.8446V130.187C41.2306 133.5 44.4137 136.185 48.3406 136.185H137.038C140.965 136.185 144.148 133.5 144.148 130.187V23.8446C144.148 20.5322 140.965 17.8468 137.038 17.8468Z" fill="#2004AB"/>
<path d="M135.658 27.0038H50.8446C48.8798 27.0038 47.2874 28.3471 47.2874 30.0045V46.1585C47.2874 47.816 48.8798 49.1593 50.8446 49.1593H135.658C137.622 49.1593 139.215 47.816 139.215 46.1585V30.0045C139.215 28.3471 137.622 27.0038 135.658 27.0038Z" fill="#2004AB"/>
<path d="M92.6873 36.339C94.1884 36.339 95.4055 35.3123 95.4055 34.046C95.4055 32.7797 94.1884 31.7531 92.6873 31.7531C91.1862 31.7531 89.9692 32.7797 89.9692 34.046C89.9692 35.3123 91.1862 36.339 92.6873 36.339Z" fill="#D7E8F0"/>
<path d="M85.0966 44.4119C85.0966 42.7135 85.8963 41.0849 87.3197 39.8838C88.7434 38.6832 90.6741 38.0085 92.6873 38.0085C94.7006 38.0085 96.6313 38.6832 98.0546 39.8838C99.4783 41.0849 100.278 42.7135 100.278 44.4119H85.0966Z" fill="#D7E8F0"/>
<path d="M93.2423 72.9044C90.3463 72.9029 87.5146 73.6262 85.1058 74.9825C82.6971 76.3391 80.8193 78.2675 79.7102 80.5247C78.6011 82.7815 78.3105 85.2651 78.8751 87.6612C79.4397 90.0578 80.8341 92.259 82.8819 93.9864C84.9297 95.7139 87.539 96.8902 90.3795 97.3665C93.2205 97.8428 96.1645 97.5977 98.8398 96.6621C101.515 95.7264 103.802 94.1424 105.41 92.1104C107.017 90.0784 107.875 87.6896 107.873 85.2466C107.872 81.9734 106.33 78.8348 103.587 76.5205C100.843 74.2061 97.1224 72.9052 93.2423 72.9044ZM93.2423 94.6102C92.6755 94.6102 92.1319 94.4203 91.7312 94.0823C91.3304 93.7439 91.1054 93.2856 91.1054 92.8075C91.1054 92.3294 91.3304 91.8708 91.7312 91.5327C92.1319 91.1947 92.6755 91.0048 93.2423 91.0048C93.8091 91.0048 94.3527 91.1947 94.7535 91.5327C95.1542 91.8708 95.3793 92.3294 95.3793 92.8075C95.3793 93.2856 95.1542 93.7439 94.7535 94.0823C94.3527 94.4203 93.8091 94.6102 93.2423 94.6102ZM95.9517 80.7307C95.4929 83.4071 95.1039 86.2272 94.1731 88.8409C93.9459 89.4602 92.5519 89.4602 92.3246 88.8409C91.656 86.8834 91.1421 84.8909 90.7864 82.8762C90.5023 81.4017 89.4754 79.0423 90.4586 77.612C91.3064 76.3439 93.7143 76.1854 95.1039 76.8489C96.8257 77.6784 96.1659 79.3999 95.9517 80.7307Z" fill="#D7E8F0"/>
<path d="M93.2423 94.6091C94.4227 94.6091 95.3793 93.8022 95.3793 92.8064C95.3793 91.8111 94.4227 91.0038 93.2423 91.0038C92.062 91.0038 91.1054 91.8111 91.1054 92.8064C91.1054 93.8022 92.062 94.6091 93.2423 94.6091Z" fill="black"/>
<path d="M95.9517 80.7304C95.4929 83.4067 95.1039 86.2269 94.1731 88.8405C93.9459 89.4599 92.5518 89.4599 92.3246 88.8405C91.656 86.8834 91.1421 84.8909 90.7864 82.8759C90.5023 81.4013 89.4754 79.042 90.4586 77.6116C91.3064 76.3435 93.7143 76.185 95.1039 76.8486C96.8257 77.678 96.1658 79.3996 95.9517 80.7304Z" fill="black"/>
<path d="M56.4819 59.0541H127.958" stroke="black" stroke-width="4.72" stroke-miterlimit="10"/>
<path d="M56.4819 64.9856H127.958" stroke="black" stroke-width="4.72" stroke-miterlimit="10"/>
<path d="M56.4819 103.207H127.958" stroke="black" stroke-width="4.72" stroke-miterlimit="10"/>
<path d="M145.359 118.502C145.63 118.679 146.102 44.1469 146.102 44.1469L119.213 35.3805C119.213 35.3805 99.2249 76.7092 100.435 77.1257L105.832 78.969C105.832 78.969 107.165 78.0805 110.255 84.4986C113.344 90.9167 135.614 112.18 145.359 118.502Z" fill="black"/>
<path d="M73.0835 108.821H111.356" stroke="black" stroke-width="4.72" stroke-miterlimit="10"/>
<path d="M252.953 152.037C252.603 155.252 247.901 192.124 252.459 199.323C254.111 201.93 237.715 199.434 236.727 199.242C221.869 196.293 207.955 190.855 194.932 184.242C181.91 177.629 170.403 168.925 156.826 163.06C154.317 161.976 148.763 159.602 150.406 156.494C153.203 151.2 156.638 143.894 156.909 137.432L156.826 128.953C156.826 128.953 154.842 123.63 161.314 128.293C167.786 132.956 197.401 145.251 216.572 131.006C235.744 116.762 236.88 105.496 236.88 105.496C236.88 105.496 224.605 80.1553 189.658 95.6568L202.003 68.7458C202.003 68.7458 200.312 66.9358 205.661 67.2712C211.009 67.6067 220.929 65.3764 222.157 57.1077C222.157 57.1077 222.253 54.4092 227.913 59.5113C233.572 64.6133 260.316 84.5385 252.953 152.037Z" fill="#2004AB"/>
<path d="M184.248 56.5802C187.246 54.7252 190.604 53.3243 194.172 52.4403" stroke="black" stroke-width="4.72" stroke-miterlimit="10"/>
<path d="M170.963 182.399L146.928 255.7L125.078 322.358L111.164 323.464C107.974 323.712 105.009 324.956 102.848 326.952C100.689 328.948 99.4901 331.552 99.4871 334.254H142.518L173.685 288.941L196.868 255.228L233.113 202.512C234.162 200.975 235.18 199.437 236.172 197.867C236.189 197.849 236.198 197.827 236.198 197.804" stroke="black" stroke-width="4.72" stroke-miterlimit="10"/>
<path d="M252.061 157.674C252.389 155.883 252.677 154.091 252.935 152.289C252.935 152.204 252.935 152.13 252.961 152.045C254.432 141.128 254.745 130.122 253.897 119.159C253.902 119.127 253.902 119.094 253.897 119.063C252.935 107.13 250.339 94.5958 245.157 82.3752C243.652 78.8506 241.79 75.4414 239.594 72.1859C239.432 71.9168 239.248 71.6514 239.047 71.3859C238.357 70.3685 237.614 69.3768 236.862 68.3962C235.844 67.1023 234.765 65.8452 233.633 64.6471C231.945 62.8279 230.074 61.1354 228.039 59.5893C228.026 59.5853 228.014 59.579 228.004 59.5709C227.994 59.5624 227.987 59.5525 227.983 59.5414C226.471 58.4122 224.865 57.3775 223.176 56.4448C222.861 56.2642 222.546 56.0946 222.227 55.925C222.178 55.8929 222.125 55.8645 222.07 55.8402" stroke="black" stroke-width="4.72" stroke-miterlimit="10"/>
<path d="M196.868 255.228L230.666 334.254H181.896C181.896 331.686 183.001 329.206 185.006 327.274C187.011 325.343 189.779 324.091 192.795 323.751L203.41 322.553C203.41 322.553 189.138 306.701 173.694 288.936" stroke="black" stroke-width="4.72" stroke-miterlimit="10"/>
<path d="M202.864 66.8764L188.216 98.7862C187.773 99.7494 187.108 100.629 186.259 101.373C185.41 102.118 184.394 102.712 183.27 103.122C182.146 103.532 180.936 103.75 179.712 103.761C178.487 103.773 177.272 103.58 176.137 103.191L141.439 91.3433C141.422 91.3034 141.407 91.2629 141.395 91.2216C140.958 89.747 136.475 75.6132 131.038 75.6132C126.865 75.6132 128.853 82.5843 130.601 86.5288C130.802 86.9527 130.99 87.3508 131.161 87.69L130.89 87.5941L103.722 78.2527L120.856 40.1497L154.309 51.0505L202.864 66.8764Z" fill="#D7E8F0"/>
<path d="M131.152 87.6911C129.33 84.1705 126.428 75.6143 131.043 75.6143C136.479 75.6143 140.958 89.7592 141.4 91.2227L141.443 91.3444L176.137 103.196C177.273 103.584 178.49 103.777 179.716 103.764C180.942 103.75 182.153 103.532 183.277 103.12C184.402 102.708 185.418 102.112 186.267 101.365C187.115 100.619 187.779 99.7376 188.22 98.7725L204.542 63.1984L152.661 46.2813L119.213 35.3805L100.422 77.1258L131.152 87.6911Z" stroke="black" stroke-width="4.72" stroke-miterlimit="10"/>
<path d="M238.693 86.7946C239.733 102.093 235.682 121.665 212.561 133.185C178.357 150.246 133.088 111.593 116.329 92.8367C113.56 89.7563 111.221 86.4164 109.359 82.8833C108.794 81.8551 108.321 80.7931 107.943 79.7056" stroke="black" stroke-width="4.72" stroke-miterlimit="10"/>
<path d="M156.524 125.649C156.524 125.649 159.146 141.763 151.062 155.462L151.097 155.425C151.097 155.425 151.097 155.45 151.071 155.462C138.66 175.099 120.891 206.427 130.802 229.19C134.172 236.932 139.979 246.148 146.923 255.703" stroke="black" stroke-width="4.72" stroke-miterlimit="10"/>
<path d="M216.704 32.2725L216.73 32.3757C216.94 34.5341 216.125 36.6745 214.465 38.326C212.805 39.9776 210.434 41.0053 207.876 41.1826C206.238 41.3025 204.592 41.0599 203.1 40.4785C202.672 40.3256 202.262 40.142 201.872 39.9293C201.712 39.8356 201.582 39.7107 201.492 39.5654C201.402 39.4198 201.355 39.2583 201.355 39.0943C201.355 38.9302 201.402 38.7688 201.492 38.6235C201.582 38.4779 201.712 38.3529 201.872 38.2593C203.751 37.1165 205.468 35.524 205.958 33.6586C206.105 33.085 206.117 32.4926 205.993 31.9149C205.859 31.1787 205.499 30.4853 204.948 29.9032C204.398 29.3212 203.676 28.8707 202.855 28.5971C202.598 28.533 202.332 28.4969 202.064 28.4902C201.308 28.4386 200.316 28.5197 200.119 28.9916C201.084 26.7042 201.124 24.2114 200.233 21.9026C199.679 20.4741 198.745 19.1716 197.502 18.0945C197.558 18.5118 197.505 18.9345 197.346 19.3324C197.187 19.7304 196.925 20.0938 196.581 20.3969C196.236 20.7 195.817 20.9352 195.352 21.086C194.887 21.2364 194.389 21.2987 193.892 21.2685C190.042 21.1579 189.317 18.0613 189.317 18.0613C189.317 18.0613 189.317 18.0982 189.317 18.1203C187.639 21.6482 182.762 21.744 179.266 20.1773C178.026 19.6407 176.937 18.8866 176.071 17.9655C175.079 14.3491 178.615 10.8544 182.692 10.353C182.779 8.05268 184.768 5.5901 187.451 5.40209C188.386 5.3347 189.325 5.4801 190.17 5.82308C191.016 6.16611 191.736 6.69415 192.258 7.35222C192.332 7.45175 192.415 7.55866 192.481 7.66925C193.578 6.32739 195.374 4.8565 197.288 4.7201C198.615 4.6415 199.939 4.90914 201.081 5.48681C202.222 6.06447 203.125 6.92418 203.668 7.94942C203.668 7.7909 205.35 7.14209 205.521 7.08311C207.092 6.57917 208.817 6.53062 210.425 6.94509C212.033 7.35955 213.432 8.21352 214.401 9.37239C214.498 9.69278 214.562 10.0196 214.593 10.3493C214.689 11.3353 214.509 12.3265 214.068 13.2431C214.689 13.3926 215.27 13.643 215.777 13.9804C216.875 14.6584 217.612 15.6745 217.827 16.8079C217.849 16.9222 217.862 17.0365 217.87 17.1508C217.958 18.0145 217.739 18.8807 217.241 19.6391C218.533 19.9506 219.707 20.5412 220.646 21.3525C221.585 22.1639 222.257 23.1681 222.594 24.2656C222.701 24.6287 222.773 24.9988 222.808 25.3715C222.957 26.9511 222.42 28.5223 221.297 29.7923C220.174 31.0619 218.541 31.9437 216.704 32.2725Z" fill="#2004AB"/>
<path d="M216.704 32.2717L216.73 32.375C216.94 34.5334 216.125 36.6737 214.465 38.3253C212.805 39.9768 210.435 41.0046 207.876 41.1819C206.239 41.3017 204.592 41.0591 203.1 40.4778C204.979 39.335 206.696 37.7387 207.181 35.8734C207.353 35.18 207.335 34.4622 207.126 33.7758C206.918 33.0894 206.526 32.4528 205.98 31.9142C205.846 31.1783 205.486 30.4846 204.935 29.9025C204.385 29.3204 203.663 28.8699 202.842 28.5964C202.585 28.5322 202.319 28.4961 202.051 28.4895C202.31 26.184 201.667 23.87 200.22 21.9018C199.666 20.4734 198.731 19.1708 197.489 18.0938C197.545 18.5111 197.492 18.9338 197.333 19.3317C197.174 19.7297 196.913 20.0931 196.568 20.3962C196.223 20.6993 195.804 20.9345 195.339 21.0852C194.874 21.2357 194.375 21.2983 193.879 21.2677C190.029 21.1571 189.304 18.0606 189.304 18.0606C189.304 18.0606 189.304 18.0975 189.304 18.1196C187.626 21.6474 182.749 21.7433 179.253 20.1767C178.013 19.64 176.924 18.8858 176.058 17.9648C175.066 14.3484 178.602 10.8536 182.679 10.3523C182.766 8.05195 184.754 5.5894 187.438 5.4014C188.372 5.33401 189.312 5.47936 190.157 5.82239C191.003 6.16537 191.723 6.69346 192.245 7.35152C192.319 7.45106 192.402 7.55796 192.468 7.66856C193.564 6.32669 195.36 4.8558 197.275 4.7194C198.604 4.63845 199.931 4.90498 201.076 5.48279C202.219 6.0606 203.125 6.92161 203.668 7.94872C203.668 7.79021 205.35 7.14139 205.521 7.08241C207.092 6.57847 208.817 6.52989 210.425 6.94439C212.033 7.35886 213.432 8.21282 214.401 9.37169C214.498 9.69204 214.562 10.0189 214.593 10.3486C214.689 11.3345 214.509 12.3258 214.068 13.2425C214.689 13.3919 215.27 13.6423 215.777 13.9797C215.697 14.4862 215.54 14.9818 215.31 15.4543C216.279 15.6938 217.151 16.1558 217.827 16.7888C217.849 16.9031 217.862 17.0174 217.87 17.1316C217.958 17.9954 217.739 18.8616 217.241 19.62C217.891 19.7765 218.514 20.0046 219.094 20.2983C219 20.8373 218.792 21.3577 218.482 21.8354C220.134 22.2277 221.583 23.0767 222.594 24.2464C222.701 24.6095 222.773 24.9796 222.808 25.3523C222.963 26.9349 222.429 28.5108 221.305 29.7845C220.181 31.0582 218.545 31.9425 216.704 32.2717Z" fill="#2004AB"/>
<path d="M182.744 24.8842C182.744 24.8842 188.285 24.9505 189.557 28.895" stroke="black" stroke-width="4.72" stroke-miterlimit="10"/>
<path d="M181.315 36.704C180.055 36.9665 178.746 37.0203 177.461 36.8625C177.219 36.8275 176.992 36.7438 176.797 36.6184C176.602 36.4927 176.446 36.3294 176.343 36.1422C176.24 35.9549 176.191 35.7492 176.202 35.5427C176.214 35.3363 176.284 35.135 176.408 34.9566C177.561 33.3088 178.75 31.6794 180.044 30.1126C180.246 29.9132 180.371 29.6662 180.402 29.4048C180.402 29.4048 179.869 24.5277 181.036 20.7859" stroke="black" stroke-width="4.72" stroke-miterlimit="10"/>
<path d="M185.676 29.035C185.793 28.249 185.245 27.5438 184.453 27.4598C183.66 27.3757 182.923 27.9445 182.805 28.7301C182.688 29.5161 183.236 30.2213 184.029 30.3053C184.821 30.3894 185.559 29.8206 185.676 29.035Z" fill="black"/>
<path d="M211.857 40.1467C211.975 41.1236 217.171 47.8883 221.869 55.357C221.867 55.3692 221.867 55.3817 221.869 55.3938C221.956 55.5524 222.044 55.7219 222.144 55.8915" stroke="black" stroke-width="4.72" stroke-linecap="round" stroke-linejoin="round"/>
<path d="M193.114 47.2981L194.749 57.1114" stroke="black" stroke-width="4.72" stroke-miterlimit="10"/>
<path d="M179.314 36.9502C179.314 36.9502 181.682 46.6677 187.508 48.1385C193.333 49.6094 198.389 43.4789 198.389 43.4789" stroke="black" stroke-width="4.72" stroke-linecap="round" stroke-linejoin="round"/>
<path d="M180.905 41.3334C181.678 41.7149 182.553 41.9276 183.449 41.952C184.345 41.9763 185.233 41.8119 186.035 41.4735" stroke="black" stroke-width="4.72" stroke-linecap="round" stroke-linejoin="round"/>
<path d="M191.843 7.22633C191.773 6.47253 191.472 5.747 190.969 5.12137C190.328 4.29237 189.377 3.66836 188.267 3.34915C187.157 3.02991 185.952 3.03382 184.845 3.36032C183.738 3.6868 182.792 4.31696 182.159 5.15013C181.526 5.98326 181.243 6.97127 181.355 7.95625" stroke="black" stroke-width="4.72" stroke-miterlimit="10" stroke-linecap="round"/>
<path d="M189.588 13.9365C189.478 12.8716 189.062 11.8453 188.377 10.9462C187.692 10.047 186.758 9.30201 185.655 8.77547C180.1 6.15441 172.982 11.2454 174.97 16.2884C175.669 18.0432 177.334 19.3187 179.231 20.1666C182.727 21.7333 187.621 21.6412 189.282 18.1095L189.308 18.0542C189.308 18.0542 190.033 21.1472 193.883 21.2615C194.381 21.291 194.879 21.2279 195.344 21.0772C195.809 20.926 196.23 20.6905 196.575 20.3873C196.92 20.0841 197.182 19.7206 197.342 19.3226C197.502 18.9245 197.557 18.5016 197.502 18.0837C200.814 20.9592 201.68 25.2576 200.124 28.9846C200.408 28.3136 202.309 28.4353 202.859 28.5901C205.228 29.2869 206.491 31.6499 205.966 33.6553C205.473 35.5317 203.755 37.1169 201.885 38.267C201.725 38.3603 201.595 38.4849 201.505 38.6298C201.415 38.775 201.368 38.9365 201.368 39.1002C201.368 39.2639 201.415 39.4253 201.505 39.5702C201.595 39.7154 201.725 39.84 201.885 39.9333C203.666 40.8988 205.776 41.3397 207.885 41.1867C210.443 41.009 212.812 39.982 214.472 38.3312C216.132 36.6804 216.948 34.5412 216.739 32.3835L216.712 32.2803C218.4 31.982 219.922 31.2156 221.034 30.103C222.146 28.9905 222.784 27.5959 222.846 26.142C222.909 24.688 222.393 23.2577 221.38 22.0799C220.368 20.9022 218.917 20.0443 217.259 19.6431C217.756 18.8847 217.975 18.0185 217.888 17.1548C217.768 15.9829 217.103 14.8989 216.038 14.1391C214.974 13.3794 213.596 13.0057 212.207 13.0997" stroke="black" stroke-width="4.72" stroke-linecap="round" stroke-linejoin="round"/>
<path d="M191.62 4.94419C192.669 3.46961 193.827 2.64385 195.99 2.4927C197.332 2.40021 198.675 2.6639 199.831 3.24688C200.986 3.82985 201.897 4.70298 202.436 5.74415C202.361 5.60037 204.118 4.92576 204.297 4.86677C204.998 4.64087 205.734 4.50421 206.482 4.46126C208.477 4.37069 210.437 4.93365 211.953 6.03261C213.468 7.13161 214.422 8.68172 214.615 10.3596C214.711 11.3455 214.531 12.3367 214.09 13.2534" stroke="black" stroke-width="4.72" stroke-linecap="square" stroke-linejoin="round"/>
<path d="M221.869 55.3606C221.869 55.3606 225.95 66.8107 202.615 67.43" stroke="black" stroke-width="4.72" stroke-miterlimit="10"/>
<path d="M100.536 170.078C100.497 161.706 110.25 159.454 114.922 159.527C143.873 159.992 148.239 120.495 148.239 120.495" stroke="black" stroke-width="4.72" stroke-linecap="round" stroke-linejoin="round"/>
<path d="M252.061 157.674C252.061 157.674 248.644 186.111 252.061 195.681C255.479 205.251 235.827 197.742 235.827 197.742" stroke="black" stroke-width="4.72" stroke-miterlimit="10"/>
<path d="M56.2721 179.107H33.5525" stroke="black" stroke-width="4.72" stroke-linecap="round" stroke-linejoin="round"/>
<path d="M137.676 179.107H94.2037" stroke="black" stroke-width="4.72" stroke-linecap="round" stroke-linejoin="round"/>
<path d="M87.9677 179.107H62.3027" stroke="black" stroke-width="4.72" stroke-linecap="round" stroke-linejoin="round"/>
<path d="M87.3079 170.078H61.9313" stroke="black" stroke-width="4.72" stroke-linecap="round" stroke-linejoin="round"/>
<path d="M107.528 170.078H93.8279" stroke="black" stroke-width="4.72" stroke-linecap="round" stroke-linejoin="round"/>
<path d="M142.352 170.078H115.892" stroke="black" stroke-width="4.72" stroke-linecap="round" stroke-linejoin="round"/>
<path d="M55.5904 170.078H51.1024" stroke="black" stroke-width="4.72" stroke-linecap="round" stroke-linejoin="round"/>
<path d="M86.4688 169.267H92.3377C92.3377 169.267 99.0631 174.624 92.3377 180.754V185.038H86.4688" stroke="black" stroke-width="4.72" stroke-linecap="round" stroke-linejoin="round"/>
<path d="M60.6246 169.267C60.6246 169.267 67.3501 174.624 60.6246 180.754V185.038" stroke="black" stroke-width="4.72" stroke-linecap="round" stroke-linejoin="round"/>
<path d="M60.6247 185.038H54.7557V180.754C61.4855 174.624 54.7557 169.267 54.7557 169.267H60.6247" stroke="black" stroke-width="4.72" stroke-linecap="round" stroke-linejoin="round"/>
<path d="M86.4688 169.267C86.4688 169.267 93.1986 174.624 86.4688 180.754V185.038" stroke="black" stroke-width="4.72" stroke-linecap="round" stroke-linejoin="round"/>
<path d="M54.7557 180.754H60.6247" stroke="black" stroke-width="4.72" stroke-linecap="round" stroke-linejoin="round"/>
<path d="M86.4688 180.754H92.3377" stroke="black" stroke-width="4.72" stroke-linecap="round" stroke-linejoin="round"/>
<path d="M109.092 167.343C108.343 168.149 107.809 169.083 107.528 170.079C107.157 171.55 107.017 173.056 107.113 174.558C107.139 176.032 107.357 177.544 109.018 178.318C111.513 179.494 114.511 177.813 114.642 175.402C114.785 173.59 115.205 171.8 115.892 170.079C115.918 169.994 115.949 169.92 115.975 169.85" stroke="black" stroke-width="4.72" stroke-linecap="round" stroke-linejoin="round"/>
<path d="M115.975 169.839C118.055 169.47 121.154 168.508 122.731 166.027" stroke="black" stroke-width="4.72" stroke-linecap="round" stroke-linejoin="round"/>
<path d="M101.781 179.107C101.781 179.107 103.416 182.742 107.528 183.184C111.64 183.627 109.04 179.107 109.04 179.107C109.04 179.107 110.744 182.292 112.807 182.399C114.869 182.506 116.652 180.924 115.94 179.107C115.94 179.107 116.569 182.03 119.62 181.71C122.67 181.389 121.411 179.107 121.411 179.107" stroke="black" stroke-width="4.72" stroke-linecap="round" stroke-linejoin="round"/>
<g opacity="0.54">
<path opacity="0.54" d="M54.8737 230.882L51.924 266.818C50.3246 269.258 48.5241 271.419 46.9203 272.753C46.7062 272.687 46.4833 272.62 46.2779 272.539C45.8846 272.425 45.4957 272.292 45.1243 272.171C39.1461 269.959 34.6363 265.841 33.2816 261.192C32.0929 257.104 33.1679 252.688 30.8606 248.846C28.0463 244.117 20.3726 241.149 19.4505 235.808C18.5765 230.812 23.9035 226.223 23.0426 221.335C22.0463 215.805 13.9967 212.517 12.4935 207.109C11.5539 203.747 12.393 199.891 12.0565 196.418C11.6588 192.549 10.8822 188.714 9.73599 184.953C21.618 184.216 33.7142 189.745 37.5641 197.66C40.7106 204.137 38.814 211.706 43.739 217.608C46.4134 220.804 50.8708 223.193 53.1738 226.54C53.8839 227.583 54.3983 228.711 54.6989 229.887C54.7208 229.968 54.7208 230.053 54.7383 230.116C54.7601 230.248 54.7776 230.348 54.7951 230.447C54.8344 230.735 54.8737 230.882 54.8737 230.882Z" fill="#2004AB"/>
<path opacity="0.54" d="M54.8956 230.868H54.8737C54.8737 230.868 54.8344 230.721 54.795 230.441C54.8322 230.554 54.8584 230.67 54.8737 230.787C54.8956 230.817 54.8956 230.85 54.8956 230.868Z" fill="#2004AB"/>
</g>
<path d="M94.1513 216.857C92.5868 221.52 84.1877 224.355 83.1695 229.136C82.2692 233.372 87.8191 237.327 86.9014 241.63C85.9269 246.249 77.9517 248.803 75.0238 252.892C72.6378 256.209 73.7521 260.01 72.5198 263.538C71.0952 267.545 66.4018 271.121 60.1308 273.016C59.7419 273.134 59.3704 273.248 58.9771 273.348C58.763 273.396 58.5401 273.462 58.3129 273.51C56.2415 272.076 53.8773 269.554 51.9414 266.834L54.8912 230.898H54.913C57.1986 229.265 59.8162 227.765 61.6341 225.951C63.6093 223.99 64.527 221.848 65.1301 219.607H65.1388V219.36C66.0128 215.813 66.0784 212.105 68.0536 208.743C72.0566 201.901 84.6203 197.138 96.9918 197.765C95.8254 200.995 95.0266 204.312 94.6058 207.67C94.2474 210.641 95.1302 213.97 94.1513 216.857Z" fill="#2004AB"/>
<path d="M65.1388 219.329V219.576H65.082C65.1126 219.492 65.1388 219.411 65.1388 219.329Z" fill="#2004AB"/>
<path d="M65.1389 219.329C65.1389 219.41 65.0995 219.491 65.082 219.576C64.4965 221.817 63.5788 223.959 61.586 225.92C59.7681 227.734 57.1505 229.238 54.865 230.867C54.865 230.867 54.865 230.816 54.8431 230.801C54.8278 230.684 54.8016 230.568 54.7645 230.454C54.7645 230.355 54.7295 230.255 54.7077 230.123C54.7077 230.06 54.7077 229.975 54.6683 229.894C54.3677 228.719 53.8533 227.59 53.1432 226.547C50.8402 223.2 46.3828 220.811 43.7084 217.615C43.7084 217.615 44.9189 200.768 55.1359 195.64C64.8417 190.792 65.1389 216.523 65.1389 219.329Z" fill="#2004AB"/>
<path d="M65.1388 219.329V219.576H65.082C65.1126 219.492 65.1388 219.411 65.1388 219.329Z" fill="#2004AB"/>
<path d="M54.8737 230.802V230.883C54.8737 230.883 54.8344 230.735 54.795 230.455C54.8322 230.569 54.8584 230.684 54.8737 230.802Z" fill="#2004AB"/>
<path d="M53.9648 230.887C56.2415 229.25 58.881 227.731 60.7077 225.921C65.8293 220.819 63.8584 214.301 67.1447 208.709C71.1432 201.874 83.7507 197.112 96.0916 197.738C94.9143 200.967 94.1124 204.284 93.6968 207.644C93.3297 210.633 94.2081 213.966 93.2598 216.86C91.6866 221.52 83.2918 224.347 82.2693 229.132C81.3647 233.364 86.9277 237.32 86.0056 241.622C85.0267 246.241 77.0602 248.792 74.1236 252.88C71.7332 256.198 72.8563 259.999 71.6152 263.534C70.1119 267.795 64.8985 271.563 58.0682 273.336C57.8497 273.399 57.6312 273.461 57.3952 273.509C55.3238 272.075 52.9597 269.558 51.0194 266.833" stroke="black" stroke-width="4.72" stroke-miterlimit="10"/>
<path d="M88.5402 203.098C70.1032 219.838 61.4462 255.135 58.0595 273.343C57.7841 274.88 57.5351 276.292 57.3209 277.553" stroke="black" stroke-width="4.72" stroke-miterlimit="10"/>
<path d="M90.2401 287.805L81.7449 330.03C81.5443 331.187 80.8634 332.247 79.8229 333.021C78.7824 333.795 77.4505 334.232 76.0639 334.254H31.7695C30.3716 334.229 29.0304 333.782 27.9886 332.995C26.9468 332.208 26.2729 331.133 26.0885 329.963L18.2662 287.805H90.2401Z" stroke="black" stroke-width="4.72" stroke-miterlimit="10"/>
<path d="M98.2984 283.102C98.0581 285.763 95.5584 287.813 92.5606 287.813H16.0856C13.1184 287.813 10.6406 285.807 10.3565 283.175C10.0288 280.167 12.6901 277.561 16.0856 277.561H92.5606C95.9255 277.561 98.5737 280.116 98.2984 283.102Z" stroke="black" stroke-width="4.72" stroke-miterlimit="10"/>
<path d="M46.0114 272.76C49.2932 270.01 53.3093 263.891 55.0922 258.888C56.5562 254.763 53.9735 250.52 53.3835 246.292C52.4571 239.656 56.3595 232.545 52.2473 226.544C49.9575 223.196 45.5001 220.815 42.8256 217.608C37.8963 211.709 39.7885 204.152 36.6377 197.675C32.8008 189.745 20.7047 184.234 8.82703 184.953C9.96235 188.719 10.731 192.557 11.1256 196.429C11.4796 199.891 10.6318 203.747 11.5626 207.12C13.0703 212.528 21.1286 215.801 22.1162 221.342C22.9902 226.241 17.6501 230.823 18.5284 235.811C19.4723 241.16 27.1155 244.117 29.9429 248.854C32.2371 252.702 31.1621 257.111 32.3551 261.196C33.8496 266.298 39.1374 270.781 46.0114 272.76Z" stroke="black" stroke-width="4.72" stroke-miterlimit="10"/>
<path d="M16.0768 191.168C33.7753 210.559 42.1046 251.442 45.3559 272.547C45.6355 274.39 45.8846 276.052 46.0813 277.553" stroke="black" stroke-width="4.72" stroke-miterlimit="10"/>
<path d="M42.8256 217.608C42.8256 217.608 44.0405 200.761 54.2532 195.637C64.4659 190.513 64.2648 219.238 64.2648 219.238" stroke="black" stroke-width="4.72" stroke-miterlimit="10"/>
<path d="M53.9647 230.886C53.9647 230.886 51.8759 221.246 55.5336 211.772" stroke="black" stroke-width="4.72" stroke-miterlimit="10"/>
<path d="M289.027 179.107H250.794" stroke="black" stroke-width="4.72" stroke-linecap="round" stroke-linejoin="round"/>
<path d="M289.648 170.078H252.018" stroke="black" stroke-width="4.72" stroke-linecap="round" stroke-linejoin="round"/>
<path d="M21.3646 334.254H264.852" stroke="black" stroke-width="4.72" stroke-miterlimit="10"/>
</svg>
